<mxfile host="app.diagrams.net" agent="Mozilla/5.0 (Windows NT 10.0; Win64; x64; rv:140.0) Gecko/20100101 Firefox/140.0" version="27.2.0" pages="2">
  <diagram name="Page-1" id="yZsrnOnHhsFfhpr1_gZJ">
    <mxGraphModel dx="1614" dy="779" grid="1" gridSize="10" guides="1" tooltips="1" connect="1" arrows="1" fold="1" page="1" pageScale="1" pageWidth="850" pageHeight="1100" math="0" shadow="0">
      <root>
        <mxCell id="0" />
        <mxCell id="1" parent="0" />
        <mxCell id="amLZLZRG8lrR91DAXRn8-2" value="&lt;font style=&quot;font-size: 24px;&quot;&gt;&lt;b&gt;Pay in Pennies Problem&lt;/b&gt;&lt;/font&gt;" style="text;html=1;align=center;verticalAlign=middle;resizable=0;points=[];autosize=1;strokeColor=none;fillColor=none;" vertex="1" parent="1">
          <mxGeometry x="240" y="43" width="300" height="40" as="geometry" />
        </mxCell>
        <mxCell id="amLZLZRG8lrR91DAXRn8-9" style="edgeStyle=orthogonalEdgeStyle;rounded=0;orthogonalLoop=1;jettySize=auto;html=1;exitX=0.5;exitY=1;exitDx=0;exitDy=0;entryX=0.5;entryY=0;entryDx=0;entryDy=0;" edge="1" parent="1" source="amLZLZRG8lrR91DAXRn8-3" target="amLZLZRG8lrR91DAXRn8-4">
          <mxGeometry relative="1" as="geometry" />
        </mxCell>
        <mxCell id="amLZLZRG8lrR91DAXRn8-3" value="&lt;div&gt;&amp;nbsp;File:&amp;nbsp; &amp;nbsp;main.cpp&lt;/div&gt;&lt;div&gt;&amp;nbsp;Author: Dr. Mark E. Lehr&lt;/div&gt;&lt;div&gt;&amp;nbsp; Created on July 7th, 2:00 PM&lt;/div&gt;&amp;nbsp;Purpose:&amp;nbsp; Pay In Pennies" style="rounded=0;whiteSpace=wrap;html=1;" vertex="1" parent="1">
          <mxGeometry x="300" y="200" width="220" height="60" as="geometry" />
        </mxCell>
        <mxCell id="amLZLZRG8lrR91DAXRn8-10" style="edgeStyle=orthogonalEdgeStyle;rounded=0;orthogonalLoop=1;jettySize=auto;html=1;exitX=0.5;exitY=1;exitDx=0;exitDy=0;entryX=0.5;entryY=0;entryDx=0;entryDy=0;" edge="1" parent="1" source="amLZLZRG8lrR91DAXRn8-4" target="amLZLZRG8lrR91DAXRn8-6">
          <mxGeometry relative="1" as="geometry" />
        </mxCell>
        <mxCell id="amLZLZRG8lrR91DAXRn8-4" value="//System Libraries&lt;br&gt;#include &amp;lt;iostream&amp;gt;&amp;nbsp; &amp;nbsp;//Input/Output Library&lt;br&gt;#include &amp;lt;cmath&amp;gt;&amp;nbsp; &amp;nbsp; &amp;nbsp; //Bring in math Library for check&lt;br&gt;using namespace std;&amp;nbsp; //STD Name-space where Library is compiled" style="rounded=0;whiteSpace=wrap;html=1;" vertex="1" parent="1">
          <mxGeometry x="200" y="320" width="420" height="60" as="geometry" />
        </mxCell>
        <mxCell id="amLZLZRG8lrR91DAXRn8-12" style="edgeStyle=orthogonalEdgeStyle;rounded=0;orthogonalLoop=1;jettySize=auto;html=1;exitX=0.5;exitY=1;exitDx=0;exitDy=0;entryX=0.5;entryY=0;entryDx=0;entryDy=0;" edge="1" parent="1" source="amLZLZRG8lrR91DAXRn8-6" target="amLZLZRG8lrR91DAXRn8-11">
          <mxGeometry relative="1" as="geometry" />
        </mxCell>
        <mxCell id="amLZLZRG8lrR91DAXRn8-6" value="&lt;div&gt;//User Libraries&lt;/div&gt;&lt;div&gt;None&lt;/div&gt;" style="rounded=0;whiteSpace=wrap;html=1;" vertex="1" parent="1">
          <mxGeometry x="350" y="440" width="120" height="60" as="geometry" />
        </mxCell>
        <mxCell id="amLZLZRG8lrR91DAXRn8-14" style="edgeStyle=orthogonalEdgeStyle;rounded=0;orthogonalLoop=1;jettySize=auto;html=1;exitX=0.5;exitY=1;exitDx=0;exitDy=0;entryX=0.5;entryY=0;entryDx=0;entryDy=0;" edge="1" parent="1" source="amLZLZRG8lrR91DAXRn8-11" target="amLZLZRG8lrR91DAXRn8-13">
          <mxGeometry relative="1" as="geometry" />
        </mxCell>
        <mxCell id="amLZLZRG8lrR91DAXRn8-11" value="//Global Constants not Variables&lt;br&gt;//Math/Physics/Science/Conversions/Dimensions&lt;br&gt;const int CNVDLRS=100;//How many Pennies in a Dollar" style="rounded=0;whiteSpace=wrap;html=1;" vertex="1" parent="1">
          <mxGeometry x="245" y="570" width="330" height="60" as="geometry" />
        </mxCell>
        <mxCell id="amLZLZRG8lrR91DAXRn8-16" style="edgeStyle=orthogonalEdgeStyle;rounded=0;orthogonalLoop=1;jettySize=auto;html=1;exitX=0.5;exitY=1;exitDx=0;exitDy=0;entryX=0.5;entryY=0;entryDx=0;entryDy=0;" edge="1" parent="1" source="amLZLZRG8lrR91DAXRn8-13" target="amLZLZRG8lrR91DAXRn8-15">
          <mxGeometry relative="1" as="geometry" />
        </mxCell>
        <mxCell id="amLZLZRG8lrR91DAXRn8-13" value="&lt;div&gt;//Function Prototypes&lt;/div&gt;&lt;div&gt;None&lt;/div&gt;" style="rounded=0;whiteSpace=wrap;html=1;" vertex="1" parent="1">
          <mxGeometry x="335" y="710" width="150" height="60" as="geometry" />
        </mxCell>
        <mxCell id="krH8xQ2QrVNTudwEisBI-2" style="edgeStyle=orthogonalEdgeStyle;rounded=0;orthogonalLoop=1;jettySize=auto;html=1;exitX=0.5;exitY=1;exitDx=0;exitDy=0;entryX=0.5;entryY=0;entryDx=0;entryDy=0;" edge="1" parent="1" source="amLZLZRG8lrR91DAXRn8-15" target="krH8xQ2QrVNTudwEisBI-1">
          <mxGeometry relative="1" as="geometry" />
        </mxCell>
        <mxCell id="amLZLZRG8lrR91DAXRn8-15" value="int main(int argc, char** argv)" style="ellipse;whiteSpace=wrap;html=1;" vertex="1" parent="1">
          <mxGeometry x="350" y="820" width="120" height="80" as="geometry" />
        </mxCell>
        <mxCell id="krH8xQ2QrVNTudwEisBI-1" value="Page 2" style="ellipse;whiteSpace=wrap;html=1;aspect=fixed;" vertex="1" parent="1">
          <mxGeometry x="370" y="950" width="80" height="80" as="geometry" />
        </mxCell>
      </root>
    </mxGraphModel>
  </diagram>
  <diagram id="03jmh6HJO5GkjI08eI4n" name="Page-2">
    <mxGraphModel dx="1614" dy="779" grid="1" gridSize="10" guides="1" tooltips="1" connect="1" arrows="1" fold="1" page="1" pageScale="1" pageWidth="850" pageHeight="1100" math="0" shadow="0">
      <root>
        <mxCell id="0" />
        <mxCell id="1" parent="0" />
        <mxCell id="UaRozNx5QwLelSW4-iyA-3" style="edgeStyle=orthogonalEdgeStyle;rounded=0;orthogonalLoop=1;jettySize=auto;html=1;exitX=0.5;exitY=1;exitDx=0;exitDy=0;entryX=0.5;entryY=0;entryDx=0;entryDy=0;" edge="1" parent="1" source="UaRozNx5QwLelSW4-iyA-1" target="UaRozNx5QwLelSW4-iyA-2">
          <mxGeometry relative="1" as="geometry" />
        </mxCell>
        <mxCell id="UaRozNx5QwLelSW4-iyA-1" value="Page 2" style="ellipse;whiteSpace=wrap;html=1;aspect=fixed;" vertex="1" parent="1">
          <mxGeometry x="370" y="70" width="80" height="80" as="geometry" />
        </mxCell>
        <mxCell id="UaRozNx5QwLelSW4-iyA-5" style="edgeStyle=orthogonalEdgeStyle;rounded=0;orthogonalLoop=1;jettySize=auto;html=1;exitX=0.5;exitY=1;exitDx=0;exitDy=0;entryX=0.5;entryY=0;entryDx=0;entryDy=0;" edge="1" parent="1" source="UaRozNx5QwLelSW4-iyA-2" target="UaRozNx5QwLelSW4-iyA-4">
          <mxGeometry relative="1" as="geometry" />
        </mxCell>
        <mxCell id="UaRozNx5QwLelSW4-iyA-2" value="&lt;div&gt;//Set random number seed once here&lt;/div&gt;&lt;div&gt;None&lt;/div&gt;" style="rounded=0;whiteSpace=wrap;html=1;" vertex="1" parent="1">
          <mxGeometry x="350" y="210" width="120" height="60" as="geometry" />
        </mxCell>
        <mxCell id="UaRozNx5QwLelSW4-iyA-7" style="edgeStyle=orthogonalEdgeStyle;rounded=0;orthogonalLoop=1;jettySize=auto;html=1;exitX=0.5;exitY=1;exitDx=0;exitDy=0;entryX=0.5;entryY=0;entryDx=0;entryDy=0;" edge="1" parent="1" source="UaRozNx5QwLelSW4-iyA-4" target="UaRozNx5QwLelSW4-iyA-6">
          <mxGeometry relative="1" as="geometry" />
        </mxCell>
        <mxCell id="UaRozNx5QwLelSW4-iyA-4" value="&amp;nbsp; &amp;nbsp; //Declare variables here&lt;br&gt;&amp;nbsp; &amp;nbsp; unsigned int payPDay,//Pay per day in Pennies&lt;br&gt;&amp;nbsp; &amp;nbsp; &amp;nbsp; &amp;nbsp; &amp;nbsp; &amp;nbsp; &amp;nbsp; &amp;nbsp; &amp;nbsp;totPay, //Total Pay at the end&lt;br&gt;&amp;nbsp; &amp;nbsp; &amp;nbsp; &amp;nbsp; &amp;nbsp; &amp;nbsp; &amp;nbsp; &amp;nbsp; &amp;nbsp;hwMnyDy;//How many days we work" style="rounded=0;whiteSpace=wrap;html=1;" vertex="1" parent="1">
          <mxGeometry x="235" y="340" width="350" height="60" as="geometry" />
        </mxCell>
        <mxCell id="UaRozNx5QwLelSW4-iyA-9" style="edgeStyle=orthogonalEdgeStyle;rounded=0;orthogonalLoop=1;jettySize=auto;html=1;exitX=0.5;exitY=1;exitDx=0;exitDy=0;entryX=0.5;entryY=0;entryDx=0;entryDy=0;" edge="1" parent="1" source="UaRozNx5QwLelSW4-iyA-6" target="UaRozNx5QwLelSW4-iyA-8">
          <mxGeometry relative="1" as="geometry" />
        </mxCell>
        <mxCell id="UaRozNx5QwLelSW4-iyA-6" value="int thsMny=1" style="rounded=0;whiteSpace=wrap;html=1;" vertex="1" parent="1">
          <mxGeometry x="350" y="440" width="120" height="40" as="geometry" />
        </mxCell>
        <mxCell id="UaRozNx5QwLelSW4-iyA-11" style="edgeStyle=orthogonalEdgeStyle;rounded=0;orthogonalLoop=1;jettySize=auto;html=1;exitX=0.5;exitY=1;exitDx=0;exitDy=0;entryX=0.5;entryY=0;entryDx=0;entryDy=0;" edge="1" parent="1" source="UaRozNx5QwLelSW4-iyA-8" target="UaRozNx5QwLelSW4-iyA-10">
          <mxGeometry relative="1" as="geometry" />
        </mxCell>
        <mxCell id="UaRozNx5QwLelSW4-iyA-40" style="edgeStyle=orthogonalEdgeStyle;rounded=0;orthogonalLoop=1;jettySize=auto;html=1;exitX=1;exitY=0.5;exitDx=0;exitDy=0;entryX=0;entryY=0.5;entryDx=0;entryDy=0;" edge="1" parent="1" source="UaRozNx5QwLelSW4-iyA-8" target="UaRozNx5QwLelSW4-iyA-39">
          <mxGeometry relative="1" as="geometry" />
        </mxCell>
        <mxCell id="UaRozNx5QwLelSW4-iyA-8" value="thsMny&amp;lt;=hwMnyDy" style="rhombus;whiteSpace=wrap;html=1;" vertex="1" parent="1">
          <mxGeometry x="345" y="530" width="130" height="110" as="geometry" />
        </mxCell>
        <mxCell id="UaRozNx5QwLelSW4-iyA-14" style="edgeStyle=orthogonalEdgeStyle;rounded=0;orthogonalLoop=1;jettySize=auto;html=1;exitX=0.5;exitY=1;exitDx=0;exitDy=0;entryX=0.5;entryY=0;entryDx=0;entryDy=0;" edge="1" parent="1" source="UaRozNx5QwLelSW4-iyA-10" target="UaRozNx5QwLelSW4-iyA-13">
          <mxGeometry relative="1" as="geometry" />
        </mxCell>
        <mxCell id="UaRozNx5QwLelSW4-iyA-10" value="totPay=0; //0 to start&lt;br&gt;&amp;nbsp; &amp;nbsp; &amp;nbsp; &amp;nbsp; payPDay=1;//1 Penny" style="rounded=0;whiteSpace=wrap;html=1;" vertex="1" parent="1">
          <mxGeometry x="350" y="690" width="150" height="60" as="geometry" />
        </mxCell>
        <mxCell id="UaRozNx5QwLelSW4-iyA-12" value="true" style="text;html=1;align=center;verticalAlign=middle;resizable=0;points=[];autosize=1;strokeColor=none;fillColor=none;" vertex="1" parent="1">
          <mxGeometry x="340" y="648" width="40" height="30" as="geometry" />
        </mxCell>
        <mxCell id="UaRozNx5QwLelSW4-iyA-16" style="edgeStyle=orthogonalEdgeStyle;rounded=0;orthogonalLoop=1;jettySize=auto;html=1;exitX=0.5;exitY=1;exitDx=0;exitDy=0;entryX=0.5;entryY=0;entryDx=0;entryDy=0;" edge="1" parent="1" source="UaRozNx5QwLelSW4-iyA-13" target="UaRozNx5QwLelSW4-iyA-15">
          <mxGeometry relative="1" as="geometry" />
        </mxCell>
        <mxCell id="UaRozNx5QwLelSW4-iyA-13" value="int day=1" style="rounded=0;whiteSpace=wrap;html=1;" vertex="1" parent="1">
          <mxGeometry x="350" y="800" width="120" height="30" as="geometry" />
        </mxCell>
        <mxCell id="UaRozNx5QwLelSW4-iyA-18" style="edgeStyle=orthogonalEdgeStyle;rounded=0;orthogonalLoop=1;jettySize=auto;html=1;exitX=1;exitY=0.5;exitDx=0;exitDy=0;entryX=0;entryY=0.5;entryDx=0;entryDy=0;" edge="1" parent="1" source="UaRozNx5QwLelSW4-iyA-15" target="UaRozNx5QwLelSW4-iyA-17">
          <mxGeometry relative="1" as="geometry" />
        </mxCell>
        <mxCell id="UaRozNx5QwLelSW4-iyA-25" style="edgeStyle=orthogonalEdgeStyle;rounded=0;orthogonalLoop=1;jettySize=auto;html=1;exitX=0.5;exitY=1;exitDx=0;exitDy=0;entryX=0.5;entryY=1;entryDx=0;entryDy=0;" edge="1" parent="1" source="UaRozNx5QwLelSW4-iyA-15" target="UaRozNx5QwLelSW4-iyA-24">
          <mxGeometry relative="1" as="geometry" />
        </mxCell>
        <mxCell id="UaRozNx5QwLelSW4-iyA-15" value="day&amp;lt;=thsMny" style="rhombus;whiteSpace=wrap;html=1;" vertex="1" parent="1">
          <mxGeometry x="365" y="870" width="90" height="90" as="geometry" />
        </mxCell>
        <mxCell id="UaRozNx5QwLelSW4-iyA-21" style="edgeStyle=orthogonalEdgeStyle;rounded=0;orthogonalLoop=1;jettySize=auto;html=1;exitX=1;exitY=0.5;exitDx=0;exitDy=0;entryX=1;entryY=0.5;entryDx=0;entryDy=0;" edge="1" parent="1" source="UaRozNx5QwLelSW4-iyA-17" target="UaRozNx5QwLelSW4-iyA-20">
          <mxGeometry relative="1" as="geometry" />
        </mxCell>
        <mxCell id="UaRozNx5QwLelSW4-iyA-17" value="totPay+=payPDay;//Add each pay day to the total&lt;br&gt;&amp;nbsp; &amp;nbsp; &amp;nbsp; &amp;nbsp; &amp;nbsp; &amp;nbsp; payPDay*=2;//Double each pay day" style="rounded=0;whiteSpace=wrap;html=1;" vertex="1" parent="1">
          <mxGeometry x="490" y="885" width="310" height="60" as="geometry" />
        </mxCell>
        <mxCell id="UaRozNx5QwLelSW4-iyA-19" value="true" style="text;html=1;align=center;verticalAlign=middle;resizable=0;points=[];autosize=1;strokeColor=none;fillColor=none;" vertex="1" parent="1">
          <mxGeometry x="430" y="868" width="40" height="30" as="geometry" />
        </mxCell>
        <mxCell id="UaRozNx5QwLelSW4-iyA-22" style="edgeStyle=orthogonalEdgeStyle;rounded=0;orthogonalLoop=1;jettySize=auto;html=1;exitX=0;exitY=0.5;exitDx=0;exitDy=0;" edge="1" parent="1" source="UaRozNx5QwLelSW4-iyA-20">
          <mxGeometry relative="1" as="geometry">
            <mxPoint x="410" y="853" as="targetPoint" />
          </mxGeometry>
        </mxCell>
        <mxCell id="UaRozNx5QwLelSW4-iyA-20" value="day++" style="rounded=0;whiteSpace=wrap;html=1;" vertex="1" parent="1">
          <mxGeometry x="615" y="838" width="60" height="30" as="geometry" />
        </mxCell>
        <mxCell id="UaRozNx5QwLelSW4-iyA-28" style="edgeStyle=orthogonalEdgeStyle;rounded=0;orthogonalLoop=1;jettySize=auto;html=1;exitX=0.5;exitY=0;exitDx=0;exitDy=0;entryX=0.5;entryY=1;entryDx=0;entryDy=0;" edge="1" parent="1" source="UaRozNx5QwLelSW4-iyA-24" target="UaRozNx5QwLelSW4-iyA-27">
          <mxGeometry relative="1" as="geometry" />
        </mxCell>
        <mxCell id="UaRozNx5QwLelSW4-iyA-24" value="//Display the results&lt;br&gt;&amp;nbsp; &amp;nbsp; &amp;nbsp; &amp;nbsp; cout&amp;lt;&amp;lt;&quot;Pennies Earned = &quot;&amp;lt;&amp;lt;totPay&amp;lt;&amp;lt;&quot; cents&quot;&amp;lt;&amp;lt;endl;&lt;br&gt;&amp;nbsp; &amp;nbsp; &amp;nbsp; &amp;nbsp; cout&amp;lt;&amp;lt;&quot;Pennies Earned = &quot;&amp;lt;&amp;lt;(pow(2,thsMny)-1)&amp;lt;&amp;lt;&quot; cents&quot;&amp;lt;&amp;lt;endl;" style="shape=parallelogram;perimeter=parallelogramPerimeter;whiteSpace=wrap;html=1;fixedSize=1;" vertex="1" parent="1">
          <mxGeometry x="30" y="970" width="360" height="60" as="geometry" />
        </mxCell>
        <mxCell id="UaRozNx5QwLelSW4-iyA-26" value="false" style="text;html=1;align=center;verticalAlign=middle;resizable=0;points=[];autosize=1;strokeColor=none;fillColor=none;" vertex="1" parent="1">
          <mxGeometry x="415" y="968" width="50" height="30" as="geometry" />
        </mxCell>
        <mxCell id="UaRozNx5QwLelSW4-iyA-31" style="edgeStyle=orthogonalEdgeStyle;rounded=0;orthogonalLoop=1;jettySize=auto;html=1;exitX=0.5;exitY=0;exitDx=0;exitDy=0;" edge="1" parent="1" source="UaRozNx5QwLelSW4-iyA-27">
          <mxGeometry relative="1" as="geometry">
            <mxPoint x="180" y="770" as="targetPoint" />
          </mxGeometry>
        </mxCell>
        <mxCell id="UaRozNx5QwLelSW4-iyA-27" value="//Output the way Code-e was it formatted&lt;br&gt;&amp;nbsp; &amp;nbsp; &amp;nbsp; &amp;nbsp; int nDlrs=totPay/CNVDLRS;//Number of Dollars&lt;br&gt;&amp;nbsp; &amp;nbsp; &amp;nbsp; &amp;nbsp; int nPnnys=totPay%CNVDLRS;//Number of Pennies" style="rounded=0;whiteSpace=wrap;html=1;" vertex="1" parent="1">
          <mxGeometry x="10" y="838" width="340" height="60" as="geometry" />
        </mxCell>
        <mxCell id="UaRozNx5QwLelSW4-iyA-36" style="edgeStyle=orthogonalEdgeStyle;rounded=0;orthogonalLoop=1;jettySize=auto;html=1;exitX=0.5;exitY=0;exitDx=0;exitDy=0;" edge="1" parent="1" source="UaRozNx5QwLelSW4-iyA-29">
          <mxGeometry relative="1" as="geometry">
            <mxPoint x="175" y="600" as="targetPoint" />
          </mxGeometry>
        </mxCell>
        <mxCell id="UaRozNx5QwLelSW4-iyA-29" value="cout&amp;lt;&amp;lt;&quot;Total Pay = $&quot;&amp;lt;&amp;lt;nDlrs&amp;lt;&amp;lt;&#39;.&#39;&lt;br&gt;&amp;nbsp; &amp;nbsp; &amp;nbsp; &amp;nbsp; &amp;nbsp; &amp;nbsp; &amp;lt;&amp;lt;(nPnnys&amp;lt;10?&quot;0&quot;:&quot;&quot;)&amp;lt;&amp;lt;nPnnys&amp;lt;&amp;lt;endl&amp;lt;&amp;lt;endl;" style="shape=parallelogram;perimeter=parallelogramPerimeter;whiteSpace=wrap;html=1;fixedSize=1;" vertex="1" parent="1">
          <mxGeometry x="10" y="710" width="330" height="60" as="geometry" />
        </mxCell>
        <mxCell id="UaRozNx5QwLelSW4-iyA-38" style="edgeStyle=orthogonalEdgeStyle;rounded=0;orthogonalLoop=1;jettySize=auto;html=1;exitX=1;exitY=0.5;exitDx=0;exitDy=0;entryX=0;entryY=0.5;entryDx=0;entryDy=0;" edge="1" parent="1" source="UaRozNx5QwLelSW4-iyA-32" target="UaRozNx5QwLelSW4-iyA-8">
          <mxGeometry relative="1" as="geometry" />
        </mxCell>
        <mxCell id="UaRozNx5QwLelSW4-iyA-32" value="thsMny++" style="rounded=0;whiteSpace=wrap;html=1;" vertex="1" parent="1">
          <mxGeometry x="115" y="570" width="120" height="30" as="geometry" />
        </mxCell>
        <mxCell id="UaRozNx5QwLelSW4-iyA-33" style="edgeStyle=orthogonalEdgeStyle;rounded=0;orthogonalLoop=1;jettySize=auto;html=1;exitX=0.5;exitY=1;exitDx=0;exitDy=0;" edge="1" parent="1" source="UaRozNx5QwLelSW4-iyA-32" target="UaRozNx5QwLelSW4-iyA-32">
          <mxGeometry relative="1" as="geometry" />
        </mxCell>
        <mxCell id="UaRozNx5QwLelSW4-iyA-39" value="return 0;" style="ellipse;whiteSpace=wrap;html=1;" vertex="1" parent="1">
          <mxGeometry x="580" y="545" width="120" height="80" as="geometry" />
        </mxCell>
        <mxCell id="nLbEm4X76YkhSm1K1YYU-1" value="false" style="text;html=1;align=center;verticalAlign=middle;resizable=0;points=[];autosize=1;strokeColor=none;fillColor=none;" vertex="1" parent="1">
          <mxGeometry x="475" y="538" width="50" height="30" as="geometry" />
        </mxCell>
      </root>
    </mxGraphModel>
  </diagram>
</mxfile>
